<?xml version="1.0" encoding="UTF-8"?><svg id="Layer_2" xmlns="http://www.w3.org/2000/svg" width="291.09mm" height="37.95mm" xmlns:xlink="http://www.w3.org/1999/xlink" viewBox="0 0 825.14 107.59"><defs><style>.cls-1{fill:url(#linear-gradient);}</style><linearGradient id="linear-gradient" x1="670.96" y1="302.22" x2="133.44" y2="-212.03" gradientUnits="userSpaceOnUse"><stop offset=".17" stop-color="#d32e27"/><stop offset=".5" stop-color="#fede6b"/><stop offset=".82" stop-color="#e62625"/></linearGradient></defs><g id="Layer_1-2"><path class="cls-1" d="M96.97,55.52c0,27.82-16.71,51.78-49.18,51.78S0,84.5,0,55.86,18.14,4.43,49.19,4.43c29.25,0,47.78,20.49,47.78,51.09ZM22.32,55.43c0,19.52,8.57,34.28,26.29,34.28,19.23,0,26.03-16.1,26.03-33.92,0-18.91-7.75-33.78-26.38-33.78s-25.94,13.95-25.94,33.41Z"/><path class="cls-1" d="M112.71,105.85V0h20.78v105.85h-20.78Z"/><path class="cls-1" d="M152.15,0h20.78v18.53h-20.78V0ZM152.15,30.79h20.78v75.06h-20.78V30.79Z"/><path class="cls-1" d="M205.96,30.79c7.15,25.42,13.1,47.66,14.58,56.68h.15c2.11-12.39,9.46-35.01,15.99-56.68h20.71l-26.51,75.06h-21.85l-25.43-75.06h22.36Z"/><path class="cls-1" d="M282.94,72.76c.02,9.39,4.72,18.56,15.07,18.56,8.65,0,11.12-3.47,13.09-8.01h20.8c-2.66,9.19-10.86,24.28-34.44,24.28s-35.45-18.49-35.45-38.18c0-23.54,12.08-40.36,36.19-40.36,25.78,0,34.54,18.65,34.54,37.38,0,2.54,0,4.19-.27,6.33h-49.53ZM311.93,60c-.14-8.74-3.63-16.09-13.76-16.09s-13.96,6.87-14.79,16.09h28.55Z"/><path class="cls-1" d="M347.31,51.15c0-7.46-.02-14.08-.14-20.36h20.38c.27,1.68.54,9.13.54,13.18,3.31-8.58,11.32-14.85,24.08-14.92v19.83c-15.08-.39-24.08,3.67-24.08,24.24v32.72h-20.78v-54.7Z"/><path class="cls-1" d="M465.59,105.85L430.31,5.88h23.22l14.87,46.18c4.51,13.97,7.95,25.83,10.25,36.04h.29c2.05-9.33,5.94-21.55,10.71-35.72l15.59-46.5h22.05l-36.22,99.97h-25.49Z"/><path class="cls-1" d="M589.8,86.46c0,7.15.58,17.58,1.01,19.39h-19.85c-.58-1.49-1.02-5.44-1.05-7.34-2.72,4.22-7.82,9.08-21.1,9.08-18.1,0-25.73-11.9-25.73-23.54,0-17.1,13.73-24.99,35.74-24.99h10.71v-4.59c0-5.34-1.92-10.58-11.56-10.58-8.77,0-10.69,3.73-11.65,9.16h-19.76c1.12-13.34,9.38-24.13,32.19-24,20.1.13,31.04,7.98,31.04,25.85v31.56ZM569.54,71.68h-8.47c-12.52,0-17.17,3.82-17.17,11.06,0,5.43,3.33,10.01,10.8,10.01,13.2,0,14.83-9.18,14.83-19.1v-1.97Z"/><path class="cls-1" d="M608.6,105.85V0h20.78v105.85h-20.78Z"/><path class="cls-1" d="M640.88,30.79h11.57V10.47h20.78v20.32h14.7v15.62h-14.7v37.04c0,5.7,1.74,7.91,7.93,7.91,1.15,0,3.18-.02,4.73-.23v14.29c-4.12,1.4-9.78,1.43-13.97,1.43-14.64,0-19.48-7.83-19.48-20.96v-39.48h-11.57v-15.62Z"/><path class="cls-1" d="M715.9,72.76c.02,9.39,4.72,18.56,15.07,18.56,8.65,0,11.12-3.47,13.09-8.01h20.8c-2.66,9.19-10.86,24.28-34.44,24.28s-35.45-18.49-35.45-38.18c0-23.54,12.08-40.36,36.19-40.36,25.78,0,34.54,18.65,34.54,37.38,0,2.54,0,4.19-.27,6.33h-49.53ZM744.89,60c-.15-8.74-3.63-16.09-13.76-16.09s-13.96,6.87-14.79,16.09h28.55Z"/><path class="cls-1" d="M780.28,51.15c0-7.46-.02-14.08-.14-20.36h20.38c.27,1.68.54,9.13.54,13.18,3.31-8.58,11.32-14.85,24.08-14.92v19.83c-15.08-.39-24.08,3.67-24.08,24.24v32.72h-20.78v-54.7Z"/></g></svg>